<?xml version="1.0" encoding="UTF-8"?>
<svg width="81px" height="81px" viewBox="0 0 81 81" version="1.1" xmlns="http://www.w3.org/2000/svg" xmlns:xlink="http://www.w3.org/1999/xlink">
    <g id="Page-1" stroke="none" stroke-width="1" fill="none" fill-rule="evenodd">
        <path d="M33.9,63.9 C33.5523438,64.253776 33.2356771,64.6204427 32.95,65 C31.65,66.7309896 31,68.7309896 31,71 C31,73.7666667 31.9666667,76.1166667 33.9,78.05 C35.8666667,80.0166667 38.2333333,81 41,81 C43.7666667,81 46.1166667,80.0166667 48.05,78.05 C50.0166667,76.1166667 51,73.7666667 51,71 C51,68.7309896 50.3333333,66.7309896 49,65 C48.7204427,64.6204427 48.403776,64.253776 48.05,63.9 C46.1166667,61.9666667 43.7666667,61 41,61 C38.2333333,61 35.8666667,61.9666667 33.9,63.9 Z M19,64.95 C18.7,64.5833333 18.3666667,64.2166667 18,63.85 C16.0666667,61.9166667 13.7166667,60.95 10.95,60.95 C8.18333333,60.95 5.81666667,61.9166667 3.85,63.85 C3.51666667,64.2166667 3.2,64.5833333 2.9,64.95 C1.6,66.6833333 0.95,68.6833333 0.95,70.95 C0.95,73.7166667 1.91666667,76.0666667 3.85,78 C5.81666667,79.9666667 8.18333333,80.95 10.95,80.95 C13.7166667,80.95 16.0666667,79.9666667 18,78 C19.9666667,76.0666667 20.95,73.7166667 20.95,70.95 C20.95,68.6833333 20.3,66.6833333 19,64.95 Z M10.95,30.95 C8.18333333,30.95 5.81666667,31.9166667 3.85,33.85 C1.91666667,35.8166667 0.95,38.1833333 0.95,40.95 C0.95,43.7166667 1.91666667,46.0666667 3.85,48 C5.81666667,49.9666667 8.18333333,50.95 10.95,50.95 C13.7166667,50.95 16.0666667,49.9666667 18,48 C19.9666667,46.0666667 20.95,43.7166667 20.95,40.95 C20.95,38.1833333 19.9666667,35.8166667 18,33.85 C16.0666667,31.9166667 13.7166667,30.95 10.95,30.95 Z M20.95,10.95 C20.95,8.18333333 19.9666667,5.81666667 18,3.85 C16.0666667,1.91666667 13.7166667,0.95 10.95,0.95 C8.18333333,0.95 5.81666667,1.91666667 3.85,3.85 C1.91666667,5.81666667 0.95,8.18333333 0.95,10.95 C0.95,13.7166667 1.91666667,16.0666667 3.85,18 C5.81666667,19.9666667 8.18333333,20.95 10.95,20.95 C13.7166667,20.95 16.0666667,19.9666667 18,18 C19.9666667,16.0666667 20.95,13.7166667 20.95,10.95 Z M41,31 C38.2333333,31 35.8666667,31.9666667 33.9,33.9 C31.9666667,35.8666667 31,38.2333333 31,41 C31,43.7666667 31.9666667,46.1166667 33.9,48.05 C35.8666667,50.0166667 38.2333333,51 41,51 C43.7666667,51 46.1166667,50.0166667 48.05,48.05 C50.0166667,46.1166667 51,43.7666667 51,41 C51,38.2333333 50.0166667,35.8666667 48.05,33.9 C46.1166667,31.9666667 43.7666667,31 41,31 Z M51,11 C51,8.23333333 50.0166667,5.86666667 48.05,3.9 C46.1166667,1.96666667 43.7666667,1 41,1 C38.2333333,1 35.8666667,1.96666667 33.9,3.9 C31.9666667,5.86666667 31,8.23333333 31,11 C31,13.7666667 31.9666667,16.1166667 33.9,18.05 C35.8666667,20.0166667 38.2333333,21 41,21 C43.7666667,21 46.1166667,20.0166667 48.05,18.05 C50.0166667,16.1166667 51,13.7666667 51,11 Z M78.05,78.05 C80.0166667,76.1166667 81,73.7666667 81,71 C81,68.2333333 80.0166667,65.8666667 78.05,63.9 C76.1166667,61.9666667 73.7666667,61 71,61 C68.2333333,61 65.8666667,61.9666667 63.9,63.9 C61.9666667,65.8666667 61,68.2333333 61,71 C61,73.7666667 61.9666667,76.1166667 63.9,78.05 C65.8666667,80.0166667 68.2333333,81 71,81 C73.7666667,81 76.1166667,80.0166667 78.05,78.05 Z M78.05,48.05 C80.0166667,46.1166667 81,43.7666667 81,41 C81,38.2333333 80.0166667,35.8666667 78.05,33.9 C76.1166667,31.9666667 73.7666667,31 71,31 C68.2333333,31 65.8666667,31.9666667 63.9,33.9 C61.9666667,35.8666667 61,38.2333333 61,41 C61,43.7666667 61.9666667,46.1166667 63.9,48.05 C65.8666667,50.0166667 68.2333333,51 71,51 C73.7666667,51 76.1166667,50.0166667 78.05,48.05 Z M81,11 C81,8.23333333 80.0166667,5.86666667 78.05,3.9 C76.1166667,1.96666667 73.7666667,1 71,1 C68.2333333,1 65.8666667,1.96666667 63.9,3.9 C61.9666667,5.86666667 61,8.23333333 61,11 C61,13.7666667 61.9666667,16.1166667 63.9,18.05 C65.8666667,20.0166667 68.2333333,21 71,21 C73.7666667,21 76.1166667,20.0166667 78.05,18.05 C80.0166667,16.1166667 81,13.7666667 81,11 Z" id="circles" fill="#000000" fill-rule="nonzero"></path>
    </g>
</svg>