<?xml version="1.0" encoding="UTF-8"?>
<svg width="89px" height="89px" viewBox="0 0 89 89" version="1.1" xmlns="http://www.w3.org/2000/svg" xmlns:xlink="http://www.w3.org/1999/xlink">
    <!-- Generator: Sketch 48.2 (47327) - http://www.bohemiancoding.com/sketch -->
    <title>Group</title>
    <desc>Created with Sketch.</desc>
    <defs></defs>
    <g id="Page-1" stroke="none" stroke-width="1" fill="none" fill-rule="evenodd">
        <g id="Group">
            <path d="M72.629,15.984 C65.078,8.433 55.038,4.275 44.359,4.275 C33.68,4.275 23.641,8.433 16.089,15.984 C0.502,31.573 0.502,56.935 16.089,72.523 C23.64,80.074 33.68,84.233 44.359,84.233 C55.038,84.233 65.077,80.074 72.629,72.523 C88.216,56.936 88.216,31.573 72.629,15.984 Z M63.002,60.068 L60.174,62.896 L44.359,47.082 L28.545,62.896 L25.717,60.068 L41.531,44.254 L25.717,28.44 L28.545,25.612 L44.359,41.426 L60.174,25.611 L63.002,28.439 L47.187,44.254 L63.002,60.068 Z" id="Shape"></path>
            <path d="M75.457,13.156 C67.15,4.85 56.106,0.275 44.359,0.275 C32.611,0.275 21.567,4.849 13.261,13.156 C-3.886,30.303 -3.886,58.205 13.261,75.351 C21.567,83.658 32.611,88.233 44.359,88.233 C56.106,88.233 67.15,83.658 75.457,75.351 C92.604,58.205 92.604,30.304 75.457,13.156 Z M72.629,72.523 C65.078,80.074 55.038,84.233 44.359,84.233 C33.68,84.233 23.641,80.074 16.089,72.523 C0.502,56.935 0.502,31.573 16.089,15.984 C23.64,8.433 33.68,4.275 44.359,4.275 C55.038,4.275 65.077,8.433 72.629,15.984 C88.216,31.573 88.216,56.936 72.629,72.523 Z" id="Shape" fill="#000000" fill-rule="nonzero"></path>
            <polygon id="Shape" fill="#000000" fill-rule="nonzero" points="60.174 25.611 44.359 41.426 28.545 25.612 25.717 28.44 41.531 44.254 25.717 60.068 28.545 62.896 44.359 47.082 60.174 62.896 63.002 60.068 47.187 44.254 63.002 28.439"></polygon>
        </g>
    </g>
</svg>