<?xml version="1.0" encoding="UTF-8"?>
<svg width="59px" height="40px" viewBox="0 0 59 40" version="1.1" xmlns="http://www.w3.org/2000/svg" xmlns:xlink="http://www.w3.org/1999/xlink">
    <g id="Page-1" stroke="none" stroke-width="1" fill="none" fill-rule="evenodd">
        <g id="lines" fill="#000000" fill-rule="nonzero">
            <path d="M57.5,2.5 L1.5,2.5 C0.9,2.5 0.5,2.1 0.5,1.5 C0.5,0.9 0.9,0.5 1.5,0.5 L57.5,0.5 C58.1,0.5 58.5,0.9 58.5,1.5 C58.5,2 58,2.5 57.5,2.5 Z" id="Shape"></path>
            <path d="M39.6,11.9 L1.5,11.9 C0.9,11.9 0.5,11.5 0.5,10.9 C0.5,10.3 0.9,9.9 1.5,9.9 L39.6,9.9 C40.2,9.9 40.6,10.3 40.6,10.9 C40.6,11.5 40.1,11.9 39.6,11.9 Z" id="Shape"></path>
            <path d="M20.5,21.3 L1.5,21.3 C0.9,21.3 0.5,20.9 0.5,20.3 C0.5,19.7 0.9,19.3 1.5,19.3 L20.5,19.3 C21.1,19.3 21.5,19.7 21.5,20.3 C21.5,20.9 21.1,21.3 20.5,21.3 Z" id="Shape"></path>
            <path d="M35.8,30.6 L1.5,30.6 C0.9,30.6 0.5,30.2 0.5,29.6 C0.5,29 0.9,28.6 1.5,28.6 L35.8,28.6 C36.4,28.6 36.8,29 36.8,29.6 C36.8,30.2 36.4,30.6 35.8,30.6 Z" id="Shape"></path>
            <path d="M29.5,40 L1.5,40 C0.9,40 0.5,39.6 0.5,39 C0.5,38.4 0.9,38 1.5,38 L29.5,38 C30.1,38 30.5,38.4 30.5,39 C30.5,39.6 30,40 29.5,40 Z" id="Shape"></path>
        </g>
    </g>
</svg>