<?xml version="1.0" encoding="UTF-8"?>
<svg width="86px" height="85px" viewBox="0 0 86 85" version="1.1" xmlns="http://www.w3.org/2000/svg" xmlns:xlink="http://www.w3.org/1999/xlink">
    <g id="Page-1" stroke="none" stroke-width="1" fill="none" fill-rule="evenodd">
        <path d="M50.1,35.4 L50.1,0 L85.5,0 L85.5,35.4 L50.1,35.4 Z M82,3.5 L53.7,3.5 L53.7,31.8 L82,31.8 L82,3.5 Z M0.5,49.6 L35.9,49.6 L35.9,85 L0.5,85 L0.5,49.6 Z M4,81.5 L32.3,81.5 L32.3,53.2 L4,53.2 L4,81.5 Z M0.5,0 L35.9,0 L35.9,35.4 L0.5,35.4 L0.5,0 Z M4,31.9 L32.3,31.9 L32.3,3.6 L4,3.6 L4,31.9 Z M67.8,74.4 L83.7,56.7 L85.5,56.7 L85.5,60.2 L69.6,77.9 L66.1,77.9 L50.2,60.2 L50.2,56.7 L52,56.7 L67.8,74.4 Z" id="squares-menu" fill="#74ebd1"></path>
    </g>
</svg>