<?xml version="1.0" standalone="no"?>
<!DOCTYPE svg PUBLIC "-//W3C//DTD SVG 20010904//EN"
 "http://www.w3.org/TR/2001/REC-SVG-20010904/DTD/svg10.dtd">
<svg version="1.0" xmlns="http://www.w3.org/2000/svg"
 width="1472.000000pt" height="1472.000000pt" viewBox="0 0 1472.000000 1472.000000"
 preserveAspectRatio="xMidYMid meet">
<metadata>
Created by potrace 1.11, written by Peter Selinger 2001-2013
</metadata>
<g transform="translate(0.000000,1472.000000) scale(0.100000,-0.100000)"
fill="#000000" stroke="none">
<path d="M7254 12346 c-17 -7 -46 -33 -64 -57 -19 -24 -37 -46 -40 -49 -3 -3
-11 -17 -19 -32 -8 -15 -22 -37 -33 -47 -10 -11 -18 -25 -18 -31 0 -5 -4 -10
-10 -10 -5 0 -9 -3 -8 -7 2 -5 -20 -42 -48 -83 -88 -130 -254 -397 -254 -408
0 -6 -3 -12 -8 -14 -4 -1 -27 -37 -51 -78 -25 -41 -48 -76 -53 -78 -4 -2 -8
-10 -8 -18 0 -8 -4 -14 -10 -14 -5 0 -10 -6 -10 -13 0 -7 -9 -23 -19 -34 -11
-12 -17 -24 -14 -27 4 -3 1 -6 -5 -6 -7 0 -12 -6 -12 -13 0 -7 -9 -23 -20 -35
-11 -12 -20 -24 -20 -27 0 -3 -16 -29 -36 -58 -20 -28 -40 -61 -46 -72 -5 -11
-14 -29 -21 -41 l-12 -21 -58 28 c-31 15 -57 25 -57 22 0 -3 -6 0 -13 6 -8 6
-17 8 -20 4 -4 -3 -7 -1 -7 5 0 7 -9 12 -19 12 -11 0 -23 5 -26 11 -4 6 -13 8
-21 5 -8 -3 -14 -1 -14 4 0 6 -5 10 -11 10 -6 0 -27 7 -47 16 -100 44 -328
130 -407 154 -65 19 -74 19 -106 6 -42 -18 -121 -85 -113 -97 3 -5 1 -9 -5 -9
-12 0 -5 -166 14 -355 3 -27 7 -70 9 -95 2 -25 7 -85 11 -135 9 -118 12 -150
15 -150 2 0 6 -41 14 -160 2 -27 4 -52 6 -55 1 -3 4 -27 5 -55 1 -27 3 -52 5
-55 1 -3 4 -30 6 -60 2 -30 6 -84 9 -120 3 -36 6 -89 8 -117 1 -29 5 -53 9
-53 4 0 7 -25 5 -55 -1 -30 1 -55 6 -55 4 0 7 -15 7 -32 -1 -18 2 -71 6 -118
4 -47 7 -113 8 -147 1 -35 4 -63 8 -63 4 0 7 -19 7 -42 1 -46 4 -95 19 -253 6
-55 10 -107 10 -115 0 -8 7 -87 16 -175 9 -95 11 -164 6 -169 -6 -6 -12 -3
-16 7 -3 9 -10 15 -14 12 -4 -3 -11 2 -14 11 -3 8 -10 13 -15 9 -6 -3 -15 4
-21 15 -6 11 -17 20 -25 20 -8 0 -15 5 -15 10 0 6 -7 10 -15 10 -8 0 -15 5
-15 10 0 6 -4 10 -10 10 -8 0 -532 369 -566 399 -31 27 -361 258 -376 264 -10
4 -18 11 -18 17 0 5 -7 10 -15 10 -8 0 -15 5 -15 10 0 6 -4 10 -10 10 -11 0
-113 71 -118 82 -2 5 -10 8 -18 8 -8 0 -14 5 -14 10 0 6 -6 10 -13 10 -7 0
-23 9 -35 20 -12 11 -26 20 -32 20 -5 0 -10 5 -10 11 0 5 -4 7 -10 4 -5 -3
-10 -1 -10 5 0 6 -4 9 -9 6 -5 -3 -14 1 -21 9 -7 8 -16 12 -21 9 -5 -3 -9 -1
-9 5 0 13 -81 12 -97 -1 -7 -6 -13 -7 -13 -3 0 13 -32 -19 -54 -55 -40 -63
-73 -194 -151 -590 -26 -129 -49 -245 -52 -257 l-5 -22 -636 -5 c-857 -5 -798
-3 -825 -31 -95 -102 -93 -117 40 -390 60 -121 113 -223 118 -227 7 -5 7 -8 0
-8 -5 0 -2 -5 8 -11 9 -6 15 -14 12 -20 -4 -5 -1 -9 5 -9 6 0 8 -4 5 -10 -3
-5 -1 -10 5 -10 6 0 8 -4 5 -10 -3 -5 -2 -10 2 -10 5 0 16 -15 24 -32 9 -18
38 -73 64 -123 27 -49 74 -139 105 -200 31 -60 91 -177 134 -258 l77 -148 -23
-26 c-62 -68 -133 -135 -243 -228 -44 -37 -92 -78 -107 -91 -15 -13 -30 -24
-33 -24 -3 0 -13 -8 -23 -17 -11 -10 -43 -38 -73 -63 -72 -61 -141 -130 -156
-157 -18 -32 -16 -102 5 -143 19 -38 80 -77 222 -140 47 -21 130 -59 185 -86
55 -26 103 -48 106 -48 14 -2 89 -42 89 -48 0 -4 7 -5 15 -2 8 4 15 1 15 -6 0
-6 5 -8 10 -5 6 3 10 1 10 -5 0 -6 4 -9 9 -5 5 3 16 -2 24 -10 9 -8 20 -15 26
-15 6 0 19 -4 29 -10 26 -15 169 -80 342 -155 348 -151 495 -217 500 -223 3
-4 13 -8 22 -10 25 -4 127 -52 133 -62 3 -5 12 -7 20 -3 8 3 15 0 15 -6 0 -6
7 -11 15 -11 9 0 27 -7 40 -16 14 -9 25 -13 25 -9 0 3 7 -1 16 -10 9 -9 23
-14 30 -11 8 3 14 2 14 -3 0 -6 94 -50 305 -141 84 -36 556 -245 579 -256 16
-8 35 -14 43 -14 7 0 13 -4 13 -8 0 -4 15 -14 34 -20 19 -7 39 -18 45 -25 7
-10 -9 -91 -60 -298 -63 -256 -77 -315 -94 -399 -3 -14 -8 -32 -12 -40 -7 -17
-10 -26 -17 -58 -3 -12 -9 -32 -12 -45 -3 -12 -7 -29 -8 -37 -3 -15 -19 -90
-21 -100 -1 -3 -5 -13 -10 -23 -4 -10 -5 -21 -1 -24 3 -3 2 -11 -3 -17 -12
-15 -32 -116 -26 -126 3 -5 1 -11 -5 -15 -16 -10 -12 -93 6 -131 17 -35 72
-74 105 -74 10 0 19 -4 19 -9 0 -6 11 -6 28 0 15 5 135 39 266 75 132 36 337
94 455 130 119 35 248 73 286 85 73 21 106 32 140 45 11 4 22 8 25 9 3 0 29 7
58 14 28 7 52 17 52 21 0 5 9 7 20 5 11 -2 22 1 25 6 4 5 11 7 16 4 5 -4 9 -1
9 5 0 7 6 10 13 7 6 -2 27 2 45 10 17 7 32 11 32 8 0 -3 14 2 30 10 17 9 35
13 40 10 6 -3 10 -2 10 4 0 10 59 26 71 19 3 -2 13 3 22 10 9 8 20 11 26 8 5
-3 11 -2 13 2 3 10 280 92 307 92 5 0 9 -31 8 -68 0 -38 2 -73 5 -78 3 -5 7
-295 8 -644 2 -709 5 -898 14 -920 3 -8 4 -24 2 -34 -3 -19 16 -82 35 -118 14
-26 85 -58 129 -58 44 0 115 32 129 58 47 87 49 169 52 1989 1 743 4 1355 8
1360 3 5 114 71 246 146 291 167 278 160 287 172 4 6 8 6 8 1 0 -5 8 -2 18 6
9 9 27 19 40 22 12 4 22 12 22 17 0 6 5 7 10 4 6 -3 10 -2 10 3 0 9 36 29 54
30 5 0 12 4 15 10 7 10 226 138 331 194 134 71 300 170 300 179 0 5 3 8 8 8
19 -3 33 3 52 23 11 12 20 18 20 13 0 -4 8 -1 18 8 9 8 22 16 27 16 6 1 17 6
25 13 9 7 36 24 60 37 25 14 151 88 280 165 129 77 251 149 270 159 19 10 40
25 46 33 6 7 14 11 17 7 4 -3 9 2 13 11 3 9 11 16 16 16 6 0 30 21 54 47 38
40 44 53 44 90 0 116 -103 187 -215 149 -66 -23 -365 -185 -365 -197 0 -6 -4
-7 -10 -4 -5 3 -10 1 -10 -5 0 -6 -4 -8 -10 -5 -5 3 -10 1 -10 -6 0 -7 -3 -9
-6 -6 -4 4 -19 -1 -33 -11 -14 -10 -38 -24 -53 -32 -16 -7 -28 -17 -28 -22 0
-4 -5 -8 -12 -8 -7 0 -93 -47 -193 -104 -171 -98 -210 -120 -365 -204 -36 -19
-67 -38 -70 -41 -3 -4 -20 -13 -37 -20 -18 -8 -33 -17 -33 -22 0 -5 -7 -9 -15
-9 -8 0 -15 -5 -15 -11 0 -5 -4 -8 -8 -5 -5 3 -19 -4 -30 -15 -12 -10 -25 -19
-29 -19 -5 0 -15 -5 -23 -12 -8 -7 -29 -20 -45 -28 -17 -8 -32 -17 -35 -21 -3
-3 -21 -13 -40 -22 -19 -10 -42 -22 -50 -27 -68 -43 -457 -260 -467 -260 -7 0
-13 -4 -13 -8 0 -11 -68 -43 -73 -34 -3 4 -6 696 -7 1537 -3 2140 -4 2182 -58
2254 -28 38 -127 68 -160 47 -7 -4 -16 -6 -19 -3 -10 11 -72 -56 -88 -95 -32
-81 -32 -103 -35 -2160 -3 -1502 -4 -1587 -20 -1578 -10 5 -20 6 -24 3 -3 -3
-6 -1 -6 5 0 7 -4 12 -10 12 -5 0 -121 64 -257 142 -137 78 -266 151 -288 162
-22 12 -42 24 -45 27 -3 3 -20 12 -37 20 -18 8 -33 17 -33 21 0 5 -7 8 -15 8
-8 0 -15 5 -15 11 0 5 -4 7 -10 4 -5 -3 -10 -1 -10 4 0 6 -7 11 -15 11 -8 0
-15 5 -15 11 0 5 -4 7 -10 4 -5 -3 -10 -1 -10 4 0 6 -7 11 -15 11 -8 0 -15 3
-15 8 0 4 -31 23 -68 42 -37 19 -69 38 -72 42 -3 4 -21 14 -40 23 -19 8 -42
20 -50 25 -8 5 -107 62 -220 126 -113 64 -225 128 -250 142 -25 14 -46 25 -48
24 -1 -1 -12 7 -24 17 -11 11 -25 18 -30 15 -4 -3 -8 0 -8 6 0 6 -4 9 -9 6 -5
-3 -15 1 -22 10 -14 17 -69 48 -69 39 0 -3 -9 2 -19 12 -11 10 -84 51 -163 92
-127 66 -149 75 -200 75 -42 1 -64 -4 -85 -20 -47 -35 -73 -82 -73 -133 0 -41
5 -52 43 -94 24 -26 49 -47 54 -47 6 0 13 -7 17 -15 3 -8 12 -15 21 -15 8 0
15 -4 15 -9 0 -5 18 -17 40 -27 22 -10 40 -21 40 -26 0 -4 4 -8 9 -8 5 0 110
-60 234 -134 124 -74 245 -145 269 -157 23 -12 45 -25 48 -29 8 -11 54 -35 63
-32 4 1 7 -3 7 -9 0 -5 5 -7 10 -4 6 3 10 2 10 -4 0 -10 66 -49 84 -49 5 0 12
-5 15 -10 6 -9 248 -152 258 -152 11 0 388 -223 391 -231 2 -5 8 -7 13 -3 5 3
9 0 9 -5 0 -6 3 -10 8 -9 4 1 23 -8 42 -20 19 -11 39 -21 44 -21 5 1 12 -3 15
-8 9 -14 425 -253 439 -253 7 0 12 -4 12 -8 0 -4 20 -18 44 -29 l43 -21 0
-557 0 -557 -26 -11 c-14 -5 -29 -11 -33 -12 -5 -2 -11 -4 -15 -5 -5 -1 -11
-2 -15 -1 -4 0 -23 -6 -42 -14 -20 -9 -36 -12 -36 -9 0 4 -6 2 -12 -4 -7 -5
-24 -12 -38 -14 -14 -1 -27 -6 -30 -10 -3 -4 -17 -9 -30 -10 -14 -2 -28 -7
-31 -11 -3 -4 -17 -9 -30 -11 -14 -1 -30 -6 -37 -10 -7 -4 -16 -4 -22 -1 -5 3
-10 1 -10 -6 0 -7 -3 -9 -7 -6 -3 4 -11 3 -18 -3 -6 -5 -36 -16 -66 -24 -30
-7 -173 -50 -319 -94 -146 -44 -382 -115 -525 -157 -143 -42 -282 -84 -310
-93 -61 -19 -85 -24 -85 -16 0 4 4 23 10 43 5 20 17 70 26 111 9 41 19 79 22
85 3 5 7 21 8 34 5 42 26 125 35 137 5 6 6 14 3 17 -3 3 -2 11 2 18 4 8 9 29
11 49 2 19 8 36 12 38 5 2 7 12 4 22 -3 11 -1 20 5 20 6 0 11 8 11 18 0 16 8
57 11 57 1 0 3 7 5 15 2 8 6 29 10 45 3 17 8 41 10 55 2 14 4 26 5 28 1 1 4 7
5 12 1 6 4 12 5 15 3 6 4 9 18 75 19 86 24 121 28 182 3 49 0 62 -20 83 -13
14 -28 25 -35 25 -6 0 -11 4 -11 10 0 5 -15 13 -32 19 -38 11 -357 159 -376
174 -8 6 -23 12 -33 14 -11 2 -43 15 -72 30 -29 15 -55 28 -59 29 -5 1 -11 3
-15 4 -5 1 -11 2 -15 1 -5 0 -8 3 -8 8 0 8 -32 22 -55 25 -5 1 -12 4 -15 7 -8
10 -186 92 -335 154 -16 7 -142 62 -280 123 -137 60 -265 116 -282 123 -18 8
-33 17 -33 21 0 4 -6 5 -14 2 -7 -3 -20 2 -29 10 -8 8 -17 12 -21 9 -3 -4 -6
-1 -6 6 0 7 -5 9 -10 6 -6 -3 -10 -1 -10 4 0 6 -3 10 -7 9 -15 -3 -63 14 -63
22 0 7 -29 21 -50 25 -3 0 -23 9 -45 19 -22 10 -58 26 -80 36 -22 10 -173 78
-335 150 -338 151 -383 172 -391 183 -3 5 -9 8 -13 8 -37 -5 -70 17 -60 42 3
9 10 15 14 12 4 -2 18 8 31 24 23 26 64 63 155 138 189 154 334 288 334 309 0
7 5 14 10 16 6 2 13 19 16 39 5 31 -11 70 -141 325 -80 159 -150 291 -156 292
-5 2 -7 8 -3 13 3 5 1 9 -5 9 -8 0 -24 31 -26 51 0 3 -9 17 -19 31 -10 14 -18
29 -17 32 1 4 -5 14 -14 22 -8 9 -13 19 -10 24 3 5 1 10 -4 12 -6 1 -42 66
-81 143 -40 77 -86 164 -102 193 -17 29 -28 55 -26 57 2 2 197 6 433 10 615 9
804 19 854 45 33 17 72 63 71 85 0 3 0 6 1 8 4 13 16 70 68 312 33 154 65 304
71 332 13 58 19 59 70 11 13 -13 28 -22 33 -20 4 1 10 -5 13 -13 4 -8 12 -15
20 -15 8 0 14 -4 14 -10 0 -5 5 -10 10 -10 6 0 23 -11 37 -24 15 -14 30 -23
35 -20 4 3 8 2 8 -3 0 -4 17 -19 38 -33 46 -31 529 -375 717 -511 77 -56 196
-140 265 -186 69 -47 128 -90 132 -96 4 -7 8 -7 8 -2 0 6 7 1 15 -9 8 -11 15
-16 15 -12 0 4 21 -8 48 -27 59 -43 108 -68 116 -60 3 4 6 1 6 -5 0 -14 58
-13 66 0 3 5 10 6 15 3 5 -4 9 -1 9 4 0 6 3 10 8 9 12 -4 47 25 68 56 15 24
19 49 19 123 0 51 -2 93 -6 93 -3 0 -5 29 -4 66 1 36 -2 67 -5 69 -4 2 -6 34
-5 70 1 36 -1 65 -5 65 -3 0 -5 27 -5 60 0 33 -3 60 -8 60 -5 0 -7 27 -5 60 1
33 0 60 -3 60 -3 0 -7 24 -7 53 -1 28 -4 79 -7 112 -3 33 -8 87 -10 120 -3 33
-8 83 -10 110 -3 28 -8 82 -11 120 -2 39 -16 187 -29 330 -14 143 -27 298 -30
345 -3 47 -12 153 -20 235 -20 219 -47 606 -43 610 3 3 297 -104 343 -125 11
-5 77 -29 147 -54 123 -44 128 -45 172 -32 24 7 55 24 69 37 30 29 157 213
157 227 0 6 3 12 8 14 10 4 62 86 62 98 0 5 5 10 10 10 6 0 10 7 10 15 0 8 5
15 10 15 6 0 10 6 10 13 0 14 68 118 84 129 6 4 7 8 3 8 -9 0 31 61 48 72 5 4
6 8 2 8 -5 0 7 23 27 50 20 28 36 53 36 56 0 3 6 12 13 19 29 33 37 45 37 53
0 5 7 15 15 22 8 7 12 16 9 21 -3 5 1 12 9 15 9 3 18 16 21 30 4 13 11 24 16
24 6 0 10 5 10 11 0 15 120 199 130 199 5 0 39 -48 76 -107 37 -60 73 -115 79
-123 7 -8 23 -35 36 -60 13 -24 33 -55 44 -68 11 -13 20 -27 20 -31 0 -5 11
-23 25 -40 14 -18 32 -44 40 -59 9 -15 36 -59 60 -98 25 -38 51 -79 57 -90 7
-10 20 -34 29 -51 9 -18 20 -33 25 -33 5 0 9 -5 9 -11 0 -17 182 -290 218
-327 34 -35 84 -58 122 -56 14 1 93 27 175 59 83 31 168 63 190 70 22 7 87 32
144 54 57 23 106 40 108 37 5 -5 -44 -677 -52 -712 -3 -12 -7 -64 -10 -115 -3
-52 -16 -211 -30 -354 -30 -324 -37 -403 -35 -438 0 -16 -2 -33 -6 -39 -4 -5
-8 -44 -10 -86 -2 -43 -6 -102 -8 -132 -3 -30 -6 -75 -7 -100 -1 -25 -4 -49
-8 -55 -3 -5 -4 -34 -3 -62 1 -29 -1 -53 -5 -53 -5 0 -9 -26 -10 -57 -2 -54
-6 -108 -19 -278 -3 -38 -6 -114 -7 -168 -1 -87 1 -101 18 -113 10 -8 15 -14
10 -14 -4 0 5 -11 21 -25 26 -22 44 -30 67 -26 4 0 7 -4 7 -9 0 -6 14 -10 30
-10 17 0 30 4 30 10 0 5 3 9 8 8 14 -4 52 13 52 23 0 6 5 7 10 4 6 -3 10 -1
10 5 0 6 4 9 9 6 5 -4 11 -2 13 2 2 7 68 53 137 97 134 84 511 355 511 367 0
5 4 7 9 3 6 -3 13 1 18 9 4 8 10 14 13 13 3 -1 21 10 40 24 19 15 134 97 255
183 121 85 225 159 230 163 6 5 37 26 70 48 33 22 71 50 85 63 14 12 33 25 43
28 9 3 17 9 17 13 0 3 13 14 29 24 l28 17 6 -33 c3 -17 30 -144 60 -282 30
-137 58 -268 62 -290 4 -22 10 -44 13 -50 3 -5 7 -21 8 -34 2 -14 8 -27 13
-29 5 -2 8 -9 5 -16 -6 -16 33 -51 76 -65 48 -17 318 -28 830 -36 239 -4 436
-8 438 -10 2 -2 -23 -52 -55 -112 -33 -59 -74 -137 -91 -173 -64 -128 -84
-165 -96 -172 -6 -4 -7 -8 -3 -8 5 0 1 -7 -7 -16 -9 -8 -16 -22 -16 -30 0 -8
-4 -14 -10 -14 -5 0 -10 -3 -9 -7 2 -15 -13 -53 -21 -53 -5 0 -12 -10 -16 -22
-4 -13 -10 -25 -13 -28 -4 -3 -67 -125 -140 -271 -121 -241 -133 -269 -127
-302 4 -21 11 -37 16 -37 6 0 10 -6 10 -13 0 -20 182 -192 288 -272 7 -5 24
-20 37 -32 13 -13 27 -23 30 -23 7 0 34 -24 127 -113 59 -56 65 -74 27 -81 -8
-1 -28 -10 -45 -19 -17 -9 -34 -13 -38 -10 -3 4 -6 2 -6 -4 0 -5 -19 -18 -42
-28 -24 -10 -61 -25 -83 -35 -54 -23 -508 -227 -565 -253 -25 -11 -48 -21 -51
-21 -13 -2 -114 -52 -117 -59 -2 -4 -8 -5 -13 -1 -5 3 -9 0 -9 -5 0 -6 -8 -11
-18 -11 -10 0 -23 -5 -30 -12 -7 -7 -12 -8 -12 -3 0 4 -8 1 -17 -8 -10 -8 -25
-17 -33 -19 -8 -2 -34 -13 -58 -25 -25 -13 -48 -21 -52 -18 -4 3 -13 -2 -20
-10 -7 -8 -16 -15 -21 -15 -7 0 -89 -35 -464 -200 -32 -14 -105 -46 -162 -70
-29 -12 -53 -27 -53 -33 0 -6 -3 -7 -7 -4 -3 4 -12 2 -20 -4 -7 -6 -13 -9 -13
-5 0 4 -30 -9 -67 -28 -57 -29 -108 -53 -133 -61 -3 -1 -34 -16 -70 -33 -36
-17 -72 -32 -80 -34 -8 -2 -17 -6 -20 -10 -3 -3 -64 -33 -135 -66 -72 -33
-154 -71 -184 -86 -30 -14 -60 -26 -66 -26 -6 0 -25 -12 -43 -27 -26 -22 -34
-38 -38 -75 -5 -44 14 -167 38 -253 17 -59 19 -68 20 -93 0 -12 4 -25 9 -28 4
-2 6 -11 2 -19 -3 -8 0 -15 5 -15 6 0 9 -9 7 -20 -2 -11 -1 -20 3 -20 4 0 9
-11 10 -25 3 -36 6 -49 14 -55 4 -4 9 -24 11 -46 2 -23 6 -45 9 -50 3 -5 9
-22 12 -39 9 -41 10 -46 61 -250 44 -178 49 -219 21 -196 -7 6 -16 8 -19 4 -4
-3 -7 -1 -7 6 0 8 -8 11 -20 8 -11 -3 -20 -2 -20 2 0 7 -111 40 -150 45 -9 1
-20 5 -25 8 -9 5 -339 108 -390 121 -11 3 -137 39 -280 80 -324 94 -324 94
-380 72 -79 -29 -114 -93 -100 -180 6 -42 56 -113 80 -114 6 0 30 -9 55 -20
25 -11 48 -19 51 -18 3 1 13 -4 22 -12 10 -7 17 -10 17 -6 0 4 7 2 15 -5 8 -7
15 -9 15 -5 0 4 6 3 13 -2 11 -10 78 -26 93 -23 4 1 10 -3 13 -9 4 -6 16 -12
26 -14 11 -2 28 -7 37 -11 9 -4 22 -5 28 -1 5 3 10 2 10 -4 0 -8 48 -25 75
-26 6 0 12 -3 15 -6 3 -3 41 -16 85 -28 44 -13 204 -61 355 -106 636 -191 668
-198 741 -163 56 27 73 61 74 145 0 42 -5 77 -12 84 -6 6 -9 18 -6 25 3 8 2
22 -2 32 -4 9 -10 33 -12 52 -2 19 -8 39 -12 45 -5 5 -7 18 -6 28 2 9 -1 17
-7 17 -5 0 -8 8 -7 17 1 10 0 20 -1 23 -5 15 -12 48 -13 68 0 12 -4 22 -8 22
-5 0 -6 9 -4 20 2 11 0 20 -5 20 -4 0 -7 8 -6 18 2 9 0 19 -4 22 -5 3 -11 21
-15 40 -12 66 -15 85 -18 105 -1 11 -5 22 -9 25 -3 3 -8 19 -11 35 -3 17 -33
140 -66 275 -34 135 -61 248 -61 251 0 3 19 13 43 24 23 10 45 22 48 27 3 5
16 10 27 11 12 1 22 5 22 9 0 4 4 8 9 8 6 0 133 54 283 121 150 66 282 124
293 129 208 90 351 155 353 161 2 5 8 7 13 3 5 -3 9 0 9 6 0 6 4 9 9 5 5 -3
12 -1 16 5 4 6 10 8 15 5 5 -3 16 3 26 12 10 10 19 17 21 16 3 -3 61 21 138
56 50 23 279 124 400 176 113 49 401 178 452 203 34 16 64 27 67 24 4 -3 6 -1
6 5 0 6 10 13 23 17 12 3 23 6 24 6 2 0 37 19 79 40 42 22 80 37 85 34 5 -3 9
-1 9 4 0 5 27 21 59 35 264 115 381 177 409 218 20 29 23 43 19 92 -5 56 -7
59 -84 135 -91 89 -171 162 -179 162 -7 0 -186 153 -241 206 -24 23 -43 39
-43 36 0 -8 -74 71 -98 105 l-21 29 51 95 c27 51 84 162 126 244 42 83 78 152
81 155 3 3 19 33 35 68 16 34 33 62 38 62 4 0 7 4 6 8 -3 8 100 201 112 212 8
7 34 63 35 75 0 6 3 12 7 15 3 3 45 84 92 180 100 203 105 233 53 304 -47 66
-38 62 -154 66 -59 2 -386 5 -725 7 -340 2 -618 5 -618 7 0 2 -30 149 -66 327
-37 178 -69 336 -71 352 -3 15 -9 27 -14 27 -5 0 -6 6 -3 14 3 8 0 17 -5 21
-6 3 -9 10 -6 14 7 12 -25 101 -37 101 -5 0 -7 4 -4 8 7 11 -48 64 -57 55 -4
-3 -7 -2 -7 4 0 6 -22 10 -50 10 -28 0 -50 -4 -50 -10 0 -6 -3 -7 -6 -4 -4 4
-21 -4 -38 -16 -17 -12 -32 -20 -33 -17 -1 3 -12 -3 -23 -12 -11 -10 -24 -18
-29 -18 -5 0 -11 -4 -13 -9 -1 -5 -57 -44 -123 -87 -156 -101 -466 -321 -482
-342 -7 -9 -13 -13 -13 -9 0 8 -92 -61 -102 -76 -4 -6 -10 -8 -14 -4 -4 4 -12
0 -18 -8 -9 -11 -360 -267 -450 -327 -10 -7 -24 -18 -31 -25 -7 -7 -15 -9 -19
-6 -3 3 -8 -2 -12 -11 -3 -9 -11 -16 -16 -16 -6 0 -18 -8 -27 -18 -9 -10 -24
-21 -33 -25 -14 -5 -16 -1 -12 26 6 39 34 316 35 337 0 8 5 60 10 115 6 55 12
123 14 150 5 62 14 163 20 230 3 28 5 66 6 85 0 19 3 42 6 50 3 8 5 39 4 68
-1 28 2 52 6 52 5 0 7 25 6 55 -2 30 1 55 5 55 4 0 7 24 7 53 -1 28 1 57 4 62
3 6 7 28 8 50 1 22 5 74 8 115 3 41 7 98 9 125 2 28 4 52 6 55 1 3 4 34 6 70
2 36 6 85 9 110 12 118 18 201 19 262 1 38 4 68 8 68 4 0 7 10 7 23 0 12 3 78
7 147 4 69 7 167 8 218 1 93 1 94 -29 118 -16 14 -36 29 -43 36 -49 39 -122
25 -367 -71 -66 -26 -148 -58 -182 -72 -35 -13 -63 -27 -63 -32 0 -4 -4 -6 -9
-3 -4 3 -27 -4 -51 -15 -23 -11 -52 -22 -63 -25 -11 -2 -24 -9 -29 -16 -4 -7
-8 -9 -8 -4 0 5 -7 3 -15 -4 -8 -7 -15 -9 -15 -5 0 4 -7 2 -15 -5 -8 -7 -15
-9 -15 -4 0 5 -4 3 -8 -4 -6 -8 -15 1 -30 30 -24 50 -81 140 -114 182 -13 17
-22 33 -21 38 2 4 -2 8 -8 8 -5 0 -8 4 -4 9 3 6 0 13 -8 18 -14 9 -50 63 -42
63 3 0 -3 9 -13 20 -10 11 -25 33 -33 48 -8 15 -17 29 -20 32 -3 3 -21 32 -39
65 -19 33 -93 151 -164 263 -72 112 -137 214 -144 228 -7 13 -18 24 -24 24 -5
0 -8 6 -5 14 3 8 2 16 -2 18 -4 2 -36 42 -70 91 -34 48 -73 95 -87 104 -34 22
-112 27 -150 9z"/>
<path d="M1808 11635 c-2 -1 -39 -5 -83 -9 -494 -40 -827 -228 -992 -561 -61
-124 -112 -299 -129 -445 -2 -25 -9 -76 -13 -115 -5 -38 -10 -522 -11 -1075 0
-553 -3 -1025 -5 -1050 -13 -135 -25 -192 -60 -292 -52 -149 -140 -269 -259
-352 -58 -40 -165 -96 -186 -96 -5 0 -21 -5 -35 -12 l-25 -11 0 -293 0 -292
67 -23 c186 -60 324 -170 396 -312 33 -66 73 -196 82 -268 4 -28 9 -61 12 -73
6 -20 8 -281 17 -1576 2 -338 6 -628 9 -645 2 -16 8 -54 12 -84 4 -30 9 -63
11 -75 3 -12 6 -34 8 -51 5 -41 41 -179 65 -245 107 -306 281 -481 591 -598
49 -18 96 -32 110 -31 3 0 17 -4 31 -9 14 -6 41 -13 60 -16 19 -3 43 -7 54
-10 11 -2 45 -7 75 -11 30 -4 64 -9 75 -12 11 -2 147 -7 303 -10 l282 -6 0
317 0 316 -67 1 c-185 3 -367 27 -493 65 -70 21 -144 58 -194 97 -78 62 -148
206 -175 362 -5 33 -13 76 -17 95 -4 19 -8 267 -10 550 -2 283 -6 758 -8 1055
-2 297 -7 560 -10 585 -48 324 -143 533 -305 674 -13 12 -31 28 -40 37 -32 31
-98 78 -174 124 l-78 47 47 25 c105 56 259 177 327 256 115 135 187 309 212
512 4 28 9 61 12 75 3 14 8 288 10 610 7 1238 11 1596 17 1635 37 214 98 349
191 427 67 56 268 127 405 142 30 3 80 9 110 12 74 9 114 11 183 13 l57 1 0
316 0 315 -230 -2 c-126 -1 -231 -3 -232 -4z"/>
<path d="M12460 11326 l0 -316 73 -1 c114 -2 205 -9 317 -25 55 -8 192 -44
230 -61 83 -36 106 -51 155 -98 62 -60 107 -149 140 -278 40 -160 38 -70 48
-1752 2 -302 6 -559 9 -570 3 -11 9 -47 12 -80 28 -243 132 -462 293 -616 70
-67 220 -175 266 -192 28 -10 21 -20 -40 -56 -186 -110 -339 -260 -412 -401
-22 -41 -58 -134 -66 -170 -2 -8 -10 -40 -18 -71 -8 -31 -18 -85 -22 -120 -4
-35 -10 -73 -13 -84 -3 -11 -7 -276 -9 -590 -7 -1160 -11 -1601 -16 -1625 -3
-14 -8 -45 -12 -69 -3 -23 -11 -55 -16 -70 -6 -14 -10 -27 -9 -29 3 -8 -32
-105 -55 -148 -84 -161 -266 -245 -610 -280 -58 -6 -153 -12 -207 -13 l-38 -1
0 -316 0 -317 278 6 c152 4 291 9 307 11 17 3 50 7 75 11 80 11 104 16 145 27
22 5 51 12 65 14 29 5 86 22 115 34 231 94 350 176 456 315 107 141 187 346
218 560 6 39 14 88 17 110 3 22 8 344 10 715 7 1155 11 1514 18 1555 57 326
211 533 474 636 l82 32 0 293 0 292 -52 18 c-245 80 -402 254 -473 524 -2 9
-24 113 -31 150 -7 37 -12 420 -18 1505 -2 363 -6 680 -10 705 -5 41 -9 69
-22 155 -52 343 -199 614 -417 766 -105 72 -333 165 -452 182 -16 3 -59 10
-95 16 -116 20 -141 21 -417 28 l-273 6 0 -317z"/>
</g>
</svg>
